<svg xmlns="http://www.w3.org/2000/svg" width="28.074" height="29.364" viewBox="0 0 28.074 29.364">
  <path id="Trazado_402" data-name="Trazado 402" d="M549.094,173.775a4.14,4.14,0,1,1-5.855,0,4.146,4.146,0,0,1,5.855,0Zm-6.231,6.239L530.882,194.1a1.008,1.008,0,0,1-1.446,0l-.663-.663a1.008,1.008,0,0,1,0-1.446l14.091-11.974Zm6.087,6.087-11.982,14.083a1.008,1.008,0,0,1-1.446,0l-.663-.663a1.008,1.008,0,0,1,0-1.446L548.951,186.1Zm5.759-6.71.391,5.328-5.8,1.15" transform="translate(-527.747 -171.845)" fill="none" stroke="#0069a3" stroke-linecap="round" stroke-linejoin="round" stroke-width="1.44"/>
</svg>
