<svg xmlns="http://www.w3.org/2000/svg" width="33.812" height="33.654" viewBox="0 0 33.812 33.654">
  <path id="Trazado_400" data-name="Trazado 400" d="M926.454,195.946l6.7,6.7-2.625,2.625-6.748-6.748m-8.833-25.466a14.166,14.166,0,1,1-14.166,14.166,14.161,14.161,0,0,1,14.166-14.166Zm2.318,2.606a12.365,12.365,0,0,1,9.084,8.526M913.4,181.352c1.89-.037,4.905-2.3,7.167-1.21,4.607,2.225-.27,8.256-.26,9.81.009,2.159-.019,5.547-1.5,7.158-1.042,1.136-1.787.223-1.629-1.275.121-1.145.465-2.578-.149-3.751a2.38,2.38,0,0,0-3.249-1.145c-3.165,1.108-.4,5.65-1.74,6.692-2.923-.223-2.811-5.166-2.848-7.521-.019-.866-1.135-2.215-1.5-3.286-1-2.895-2.01-5.622,1.517-6.7a3.758,3.758,0,0,1,3.4.614,6.811,6.811,0,0,0,3.072,1.685" transform="translate(-900.063 -172.339)" fill="none" stroke="#0069a3" stroke-linecap="round" stroke-linejoin="round" stroke-width="1.44"/>
</svg>
