<svg xmlns="http://www.w3.org/2000/svg" width="31.835" height="29.673" viewBox="0 0 31.835 29.673">
  <path id="Trazado_808" data-name="Trazado 808" d="M477.534,499.668c3.014-.069,7.818-3.666,11.423-1.92,7.34,3.553-.426,13.152-.417,15.628.017,3.44-.035,8.835-2.38,11.4-1.659,1.807-2.849.356-2.589-2.033.2-1.824.738-4.109-.243-5.977-1.138-2.18-2.98-2.589-5.177-1.824-5.047,1.763-.634,9-2.771,10.65-4.656-.356-4.474-8.226-4.535-11.979-.026-1.381-1.807-3.527-2.389-5.238-1.59-4.613-3.205-8.947,2.424-10.676a5.959,5.959,0,0,1,5.4.982c1.095.8,2.424,2.224,4.9,2.676m-3.622,2.623H481.5a1.724,1.724,0,0,1,1.72,1.72v3.944a1.724,1.724,0,0,1-1.72,1.72H477.56a1.724,1.724,0,0,1-1.72-1.72V505.7a1.724,1.724,0,0,1,1.72-1.72Zm-13.23,3.692h30.4m-15.2,2.745v-5.481" transform="translate(-463.61 -496.636)" fill="none" stroke="#0090d0" stroke-linecap="round" stroke-linejoin="round" stroke-width="1.44"/>
</svg>
