<svg xmlns="http://www.w3.org/2000/svg" width="27.098" height="27.144" viewBox="0 0 27.098 27.144">
  <path id="Trazado_809" data-name="Trazado 809" d="M662.2,368.232H654.81v24.382h25.659V368.232h-7.518m-1.579-1.322h-7.465a1.383,1.383,0,0,0-1.307,1.436v.378a1.378,1.378,0,0,0,1.307,1.436h7.465a1.383,1.383,0,0,0,1.307-1.436v-.378a1.378,1.378,0,0,0-1.307-1.436Zm-4.722,8.5c1.572-.038,4.087-1.919,5.969-1,3.838,1.859-.227,6.876-.219,8.168.008,1.8-.015,4.616-1.247,5.954-.869.944-1.488.189-1.352-1.065a5.4,5.4,0,0,0-.128-3.128,1.981,1.981,0,0,0-2.7-.952c-2.637.922-.332,4.707-1.451,5.568-2.433-.189-2.335-4.3-2.372-6.264-.015-.725-.944-1.844-1.247-2.735-.831-2.41-1.677-4.677,1.262-5.584a3.123,3.123,0,0,1,2.826.514c.3.219.635.529,1.073.808a4.143,4.143,0,0,0,1.488.589" transform="translate(-654.09 -366.19)" fill="none" stroke="#0090d0" stroke-linecap="round" stroke-linejoin="round" stroke-width="1.44"/>
</svg>
