<svg xmlns="http://www.w3.org/2000/svg" width="28.069" height="31.317" viewBox="0 0 28.069 31.317">
  <path id="Trazado_401" data-name="Trazado 401" d="M636.253,178.574c3.191-.074,8.276-3.881,12.092-2.032,7.77,3.761-.451,13.922-.441,16.533.018,3.641-.037,9.352-2.519,12.064-1.756,1.913-3.016.377-2.74-2.152.211-1.931.781-4.349-.258-6.326-1.2-2.308-3.154-2.74-5.481-1.931-5.343,1.867-.671,9.527-2.933,11.274-4.929-.377-4.736-8.708-4.8-12.681-.028-1.462-1.913-3.733-2.529-5.545-1.683-4.883-3.393-9.471,2.565-11.3a6.308,6.308,0,0,1,5.72,1.039c1.159.846,2.565,2.354,5.186,2.832" transform="translate(-624.338 -175.407)" fill="none" stroke="#0069a3" stroke-linecap="round" stroke-linejoin="round" stroke-width="1.44"/>
</svg>
