<svg xmlns="http://www.w3.org/2000/svg" width="35.707" height="31.155" viewBox="0 0 35.707 31.155">
  <g id="Grupo_294" data-name="Grupo 294" transform="translate(-795.847 1127.313)">
    <path id="Trazado_406" data-name="Trazado 406" d="M478.358,240.7c2.96-.071,7.7-3.729,11.239-1.953,7.219,3.614-.424,14.375-.406,16.894.018,3.5-.027,8.986-2.341,11.592-1.635,1.838-2.8.362-2.545-2.068.194-1.855.724-4.179-.239-6.079-1.122-2.218-2.933-2.633-5.1-1.855-4.966,1.794-.627,9.154-2.73,10.832-4.586-.362-4.4-8.367-4.462-12.184-.027-1.4-1.776-3.6-2.35-5.328-1.564-4.692-3.154-10.108,2.386-11.866a5.714,5.714,0,0,1,5.319,1c1.069.813,2.386,2.262,4.815,2.721m2.439,3.552v1.1m-8.138-1.1v1.1m.406,3.455a3.687,3.687,0,0,0,7.316,0m.009,0h-7.325" transform="translate(333.539 -1364.94)" fill="none" stroke="#0069a3" stroke-linecap="round" stroke-linejoin="round" stroke-width="1.44"/>
    <path id="Trazado_407" data-name="Trazado 407" d="M462.64,242.51l2.545,1.131m-2.218,5.5h2.695m-.309,6,2.333-1.723m28.848-10.885-2.712.627m2.536,6.176-2.73-.68m.539,6.256-2.333-1.723" transform="translate(334.157 -1365.435)" fill="none" stroke="#0069a3" stroke-linecap="round" stroke-linejoin="round" stroke-width="1.44"/>
  </g>
</svg>
