<svg xmlns="http://www.w3.org/2000/svg" width="28.069" height="31.321" viewBox="0 0 28.069 31.321">
  <path id="Trazado_403" data-name="Trazado 403" d="M763.177,241.937c-3.853.451-8.947-3.356-12.754-1.508-7.77,3.761.451,13.922.441,16.533-.018,3.641.037,9.352,2.52,12.064,1.756,1.913,3.016.377,2.74-2.152-.211-1.931-.782-4.349.258-6.327,1.2-2.308,3.154-2.74,5.481-1.931,5.343,1.867.671,9.526,2.933,11.274,4.929-.377,4.736-8.708,4.8-12.681.028-1.462,1.913-3.733,2.529-5.545,1.683-4.883,3.393-9.471-2.565-11.3-2.1-.635-4.083-.147-6.382,1.572Zm-3.43,12.018,3.32-3.32-4.4-4.285,4.4-4.414" transform="translate(-746.362 -239.29)" fill="none" stroke="#0069a3" stroke-linecap="round" stroke-linejoin="round" stroke-width="1.44"/>
</svg>
