<svg xmlns="http://www.w3.org/2000/svg" width="35.203" height="35.263" viewBox="0 0 35.203 35.263">
  <path id="Trazado_408" data-name="Trazado 408" d="M723.393,398.544H713.67v32.083h33.763V398.544h-9.892m-2.078-1.74H725.64a1.82,1.82,0,0,0-1.72,1.889v.5a1.814,1.814,0,0,0,1.72,1.889h9.823a1.82,1.82,0,0,0,1.72-1.889v-.5a1.813,1.813,0,0,0-1.72-1.889Zm-6.214,11.185c2.068-.05,5.379-2.525,7.854-1.322,5.051,2.446-.3,9.047-.288,10.747.01,2.366-.02,6.075-1.64,7.834-1.143,1.243-1.958.249-1.78-1.4.139-1.253.507-2.824-.169-4.116a2.607,2.607,0,0,0-3.559-1.253c-3.47,1.213-.437,6.194-1.909,7.327-3.2-.249-3.072-5.657-3.122-8.242-.02-.954-1.243-2.426-1.64-3.6-1.094-3.172-2.207-6.154,1.66-7.347a4.109,4.109,0,0,1,3.718.676c.4.288.835.7,1.412,1.064a5.453,5.453,0,0,0,1.959.775" transform="translate(-712.95 -396.084)" fill="none" stroke="#0069a3" stroke-linecap="round" stroke-linejoin="round" stroke-width="1.44"/>
</svg>
