<svg xmlns="http://www.w3.org/2000/svg" width="32.111" height="30.936" viewBox="0 0 32.111 30.936">
  <path id="Trazado_404" data-name="Trazado 404" d="M942.984,432.515c3.15-.073,8.17-3.831,11.938-2.006a5.252,5.252,0,0,1,3.277,5.619m-3.577,13.517c-.191,2.914-1,7.326-2.624,9.1-1.734,1.888-2.978.372-2.705-2.124.209-1.906.771-4.294-.254-6.246-1.189-2.279-3.114-2.705-5.411-1.906-5.274,1.843-.663,9.4-2.9,11.13-4.866-.372-4.675-8.6-4.739-12.519-.027-1.443-1.888-3.686-2.5-5.474-1.661-4.82-3.35-9.35,2.533-11.157a6.227,6.227,0,0,1,5.646,1.026c1.144.835,2.533,2.324,5.12,2.8m9.051,1.434a6.754,6.754,0,1,1-6.754,6.754,6.753,6.753,0,0,1,6.754-6.754Zm0,3.386v6.727m-3.368-3.359h6.727" transform="translate(-931.211 -429.379)" fill="none" stroke="#0069a3" stroke-linecap="round" stroke-linejoin="round" stroke-width="1.44"/>
</svg>
