<svg xmlns="http://www.w3.org/2000/svg" width="27.113" height="36.373" viewBox="0 0 27.113 36.373">
  <g id="Grupo_295" data-name="Grupo 295" transform="translate(-1083.562 574.522)">
    <path id="Trazado_409" data-name="Trazado 409" d="M732.533,450.88a3.878,3.878,0,0,1-.919,2.875,1.763,1.763,0,0,1-.277.267l3.656,8.437,3.952-8.339a3.739,3.739,0,0,1-.415-.375,4.065,4.065,0,0,1-.79-2.885m9.87,14.188c.889-6.2-1-8.862-8.675-10.927m-7.6-.1-3.221,1.186c-5.375,2.006-6.787,4.13-5.661,9.831m21.014-.968h-4.406M730.9,436.1c-.939,1.581-1.61,6.323-1.61,8.181,0,3.517,2.49,7.272,5.631,7.272s5.681-2.845,5.681-6.363-.109-5.691-3.25-5.691c-1.156,0-5.118-.692-5.108-3.448m-4.9.445c-4.851,5.157-4.584,15.353-1.808,18.732m17.023-18.732c4.851,5.157,4.584,15.353,1.808,18.732" transform="translate(362.163 -1004.033)" fill="none" stroke="#0069a3" stroke-linecap="round" stroke-linejoin="round" stroke-width="1.44"/>
    <path id="Trazado_410" data-name="Trazado 410" d="M728.118,430.16h13.8a.768.768,0,0,1,.721.761l.267,4.772c.02.415-.336.86-.721.761a28.863,28.863,0,0,0-14.336,0c-.385.1-.741-.346-.721-.761l.267-4.772a.754.754,0,0,1,.721-.761Z" transform="translate(362.102 -1003.962)" fill="none" stroke="#0069a3" stroke-width="1.44"/>
  </g>
</svg>
